<svg width="20" height="21" viewBox="0 0 20 21" fill="none" xmlns="http://www.w3.org/2000/svg">
<path d="M5.00033 5.50002L6.66699 3.83335M6.66699 3.83335L5.00033 2.16669M6.66699 3.83335H5.00033C3.15938 3.83335 1.66699 5.32574 1.66699 7.16669M15.0003 15.5L13.3337 17.1667M13.3337 17.1667L15.0003 18.8334M13.3337 17.1667H15.0003C16.8413 17.1667 18.3337 15.6743 18.3337 13.8334M8.49118 5.91669C9.04623 3.76015 11.0039 2.16669 13.3337 2.16669C16.0951 2.16669 18.3337 4.40526 18.3337 7.16669C18.3337 9.49647 16.7402 11.4541 14.5837 12.0092M11.667 13.8334C11.667 16.5948 9.42842 18.8334 6.66699 18.8334C3.90557 18.8334 1.66699 16.5948 1.66699 13.8334C1.66699 11.0719 3.90557 8.83335 6.66699 8.83335C9.42842 8.83335 11.667 11.0719 11.667 13.8334Z" stroke="black" stroke-width="1.5" stroke-linecap="round" stroke-linejoin="round"/>
</svg>
