<svg viewBox="0 0 24 24" width="20px" height="20px" class="d Vb UmNoP" aria-hidden="true">
    <path fill-rule="evenodd" clip-rule="evenodd" d="M12.182 16.207V3.74h1.5v12.468z"></path>
    <path fill-rule="evenodd" clip-rule="evenodd" d="M9.636 18.76a2.553 2.553 0 1 0 0-5.106 2.553 2.553 0 0 0 0 5.107m0 1.5a4.053 4.053 0 1 0 0-8.106 4.053 4.053 0 0 0 0 8.107m4.826-12.828a12 12 0 0 1-2.2-3.017l1.34-.671a10.6 10.6 0 0 0 1.912 2.62c.899.884 1.902 1.475 2.903 1.475v1.5c-1.581 0-2.945-.913-3.955-1.907"></path>
</svg>