<svg width="21" height="18" viewBox="0 0 21 18" fill="none" xmlns="http://www.w3.org/2000/svg">
<g filter="url(#filter0_d_11565_102)">
<path d="M4.66699 8.83398H7.16699M2.16699 5.50065L3.83366 6.33398L4.89253 3.15738C5.11109 2.50169 5.22037 2.17385 5.42307 1.93147C5.60206 1.71743 5.83192 1.55175 6.09158 1.44963C6.38562 1.33398 6.7312 1.33398 7.42235 1.33398H13.5783C14.2695 1.33398 14.615 1.33398 14.9091 1.44963C15.1687 1.55175 15.3986 1.71743 15.5776 1.93147C15.7803 2.17385 15.8896 2.50169 16.1081 3.15738L17.167 6.33398L18.8337 5.50065M13.8337 8.83398H16.3337M6.16699 6.33398H14.8337C16.2338 6.33398 16.9339 6.33398 17.4686 6.60647C17.939 6.84615 18.3215 7.2286 18.5612 7.69901C18.8337 8.23379 18.8337 8.93385 18.8337 10.334V12.584C18.8337 12.9712 18.8337 13.1648 18.8016 13.3258C18.6701 13.987 18.1533 14.5038 17.4921 14.6353C17.3311 14.6673 17.1375 14.6673 16.7503 14.6673H16.3337C15.4132 14.6673 14.667 13.9211 14.667 13.0007C14.667 12.7705 14.4804 12.584 14.2503 12.584H6.75033C6.52021 12.584 6.33366 12.7705 6.33366 13.0007C6.33366 13.9211 5.58747 14.6673 4.66699 14.6673H4.25033C3.86311 14.6673 3.66951 14.6673 3.50851 14.6353C2.84736 14.5038 2.33053 13.987 2.19902 13.3258C2.16699 13.1648 2.16699 12.9712 2.16699 12.584V10.334C2.16699 8.93385 2.16699 8.23379 2.43948 7.69901C2.67916 7.2286 3.06161 6.84615 3.53202 6.60647C4.0668 6.33398 4.76686 6.33398 6.16699 6.33398Z" stroke="#FF401A" stroke-width="1.5" stroke-linecap="round" stroke-linejoin="round" shape-rendering="crispEdges"/>
</g>
<defs>
<filter id="filter0_d_11565_102" x="-2.58301" y="0.583984" width="26.167" height="22.834" filterUnits="userSpaceOnUse" color-interpolation-filters="sRGB">
<feFlood flood-opacity="0" result="BackgroundImageFix"/>
<feColorMatrix in="SourceAlpha" type="matrix" values="0 0 0 0 0 0 0 0 0 0 0 0 0 0 0 0 0 0 127 0" result="hardAlpha"/>
<feOffset dy="4"/>
<feGaussianBlur stdDeviation="2"/>
<feComposite in2="hardAlpha" operator="out"/>
<feColorMatrix type="matrix" values="0 0 0 0 0 0 0 0 0 0 0 0 0 0 0 0 0 0 0.25 0"/>
<feBlend mode="normal" in2="BackgroundImageFix" result="effect1_dropShadow_11565_102"/>
<feBlend mode="normal" in="SourceGraphic" in2="effect1_dropShadow_11565_102" result="shape"/>
</filter>
</defs>
</svg>
