<svg width="20" height="20" viewBox="0 0 20 20" fill="none" xmlns="http://www.w3.org/2000/svg">
<path d="M5.41667 16.666H4.16667C3.24619 16.666 2.5 15.9198 2.5 14.9993V3.33268C2.5 2.41221 3.24619 1.66602 4.16667 1.66602H15.8333C16.7538 1.66602 17.5 2.41221 17.5 3.33268V14.9993C17.5 15.9198 16.7538 16.666 15.8333 16.666H14.5833M10 15.8327C11.3807 15.8327 12.5 14.7134 12.5 13.3327C12.5 11.952 11.3807 10.8327 10 10.8327C8.61929 10.8327 7.5 11.952 7.5 13.3327C7.5 14.7134 8.61929 15.8327 10 15.8327ZM10 15.8327L10.0179 15.8325L7.35723 18.4932L5.0002 16.1361L7.51638 13.62M10 15.8327L12.6607 18.4932L15.0177 16.1361L12.5015 13.62M7.5 4.99935H12.5M5.83333 7.91602H14.1667" stroke="black" stroke-width="1.5" stroke-linecap="round" stroke-linejoin="round"/>
</svg>
