<svg width="37" height="36" viewBox="0 0 37 36" fill="none" xmlns="http://www.w3.org/2000/svg">
<rect x="0.5" width="36" height="36" rx="18" fill="#FF401A" fill-opacity="0.1"/>
<rect x="1" y="0.5" width="35" height="35" rx="17.5" stroke="#FF401A" stroke-opacity="0.3"/>
<path d="M14.5007 14.0002L15.834 12.6668M15.834 12.6668L14.5007 11.3335M15.834 12.6668H14.5007C13.0279 12.6668 11.834 13.8607 11.834 15.3335M22.5007 22.0002L21.1673 23.3335M21.1673 23.3335L22.5007 24.6668M21.1673 23.3335H22.5007C23.9734 23.3335 25.1673 22.1396 25.1673 20.6668M17.2933 14.3335C17.7374 12.6083 19.3035 11.3335 21.1673 11.3335C23.3765 11.3335 25.1673 13.1244 25.1673 15.3335C25.1673 17.1973 23.8926 18.7634 22.1674 19.2075M19.834 20.6668C19.834 22.876 18.0431 24.6668 15.834 24.6668C13.6248 24.6668 11.834 22.876 11.834 20.6668C11.834 18.4577 13.6248 16.6668 15.834 16.6668C18.0431 16.6668 19.834 18.4577 19.834 20.6668Z" stroke="#FF401A" stroke-width="1.5" stroke-linecap="round" stroke-linejoin="round"/>
</svg>
