<svg width="73" height="72" viewBox="0 0 73 72" fill="none" xmlns="http://www.w3.org/2000/svg">
<rect x="0.666016" width="72" height="72" rx="36" fill="#FF401A" fill-opacity="0.1"/>
<rect x="1.41602" y="0.75" width="70.5" height="70.5" rx="35.25" stroke="#FF401A" stroke-opacity="0.1" stroke-width="1.5"/>
<path d="M30.416 39.8628V48.5L36.2946 46.1486C36.4318 46.0937 36.5004 46.0662 36.5713 46.0554C36.6341 46.0457 36.698 46.0457 36.7608 46.0554C36.8316 46.0662 36.9002 46.0937 37.0374 46.1486L42.916 48.5V39.8628M46.041 32.875C46.041 38.0527 41.8437 42.25 36.666 42.25C31.4883 42.25 27.291 38.0527 27.291 32.875C27.291 27.6973 31.4883 23.5 36.666 23.5C41.8437 23.5 46.041 27.6973 46.041 32.875Z" stroke="#FF401A" stroke-width="2.25" stroke-linecap="round" stroke-linejoin="round"/>
</svg>
