<svg width="22" height="23" viewBox="0 0 22 23" fill="none" xmlns="http://www.w3.org/2000/svg">
<g id="calendar-date">
<path id="Icon" d="M19.25 9.33748H2.75M14.6667 2.00415V5.67082M7.33333 2.00415V5.67082M9.625 13.0041L11 12.0875V16.6708M9.85417 16.6708H12.1458M7.15 20.3375H14.85C16.3901 20.3375 17.1602 20.3375 17.7485 20.0378C18.2659 19.7741 18.6866 19.3534 18.9503 18.836C19.25 18.2477 19.25 17.4776 19.25 15.9375V8.23748C19.25 6.69734 19.25 5.92727 18.9503 5.33901C18.6866 4.82156 18.2659 4.40087 17.7485 4.13722C17.1602 3.83748 16.3901 3.83748 14.85 3.83748H7.15C5.60986 3.83748 4.83978 3.83748 4.25153 4.13722C3.73408 4.40087 3.31338 4.82156 3.04973 5.33901C2.75 5.92727 2.75 6.69734 2.75 8.23748V15.9375C2.75 17.4776 2.75 18.2477 3.04973 18.836C3.31338 19.3534 3.73408 19.7741 4.25153 20.0378C4.83978 20.3375 5.60986 20.3375 7.15 20.3375Z" stroke="black" stroke-width="1.5" stroke-linecap="round" stroke-linejoin="round"/>
</g>
</svg>
