<svg viewBox="0 0 24 24" width="20px" height="20px" class="d Vb UmNoP" aria-hidden="true">
    <path fill-rule="evenodd" clip-rule="evenodd" d="M5.917 8.324a1.5 1.5 0 1 0 0-3 1.5 1.5 0 0 0 0 3m0 1.5a3 3 0 1 0 0-6 3 3 0 0 0 0 6m12.166-1.5a1.5 1.5 0 1 0 0-3 1.5 1.5 0 0 0 0 3m0 1.5a3 3 0 1 0 0-6 3 3 0 0 0 0 6m-5.987.71a1.105 1.105 0 1 0 0-2.21 1.105 1.105 0 0 0 0 2.21m0 1.5a2.605 2.605 0 1 0 0-5.21 2.605 2.605 0 0 0 0 5.21"></path>
    <path fill-rule="evenodd" clip-rule="evenodd" d="M1.676 18.671v-4.58c.662-.78 1.797-1.642 3.202-1.905 1.384-.259 3.15.042 5.136 1.83-.75.376-1.33.915-1.693 1.39l-.154.202v3.063zm6.49 1.5H.177v-6.598l.154-.202c.796-1.04 2.3-2.291 4.273-2.66 2.024-.378 4.402.199 6.83 2.58l.225.22v.039a4 4 0 0 1 .7.003l.138-.182c.796-1.04 2.3-2.291 4.273-2.66 2.024-.378 4.403.199 6.83 2.58l.225.22v6.66h-7.798v.005h-7.86zm7.86-1.5h6.298v-4.524c-2.044-1.904-3.862-2.226-5.28-1.961-1.343.25-2.44 1.05-3.111 1.8.614.289 1.241.725 1.868 1.34l.225.22zm-6.36.005v-2.544c.398-.44 1.042-.903 1.819-1.048.787-.147 1.83.01 3.04 1.101v2.49z"></path>
</svg>