<svg viewBox="0 0 24 24" width="20px" height="20px" class="d Vb UmNoP" aria-hidden="true">
    <path fill-rule="evenodd" clip-rule="evenodd" d="m12.49 3.52.094.137h5.19l.152-.123 3.581 4.4-.762.62-8.57 11.927L3.108 8.27l-.615-.497 3.425-4.237.151.121h6.218zm-1.346 1.31H7.735l1.06 2.73zm-1.129 3.111h4.068l-1.797-2.637zm3.369-3.11 1.908 2.798 1.005-2.799zM20 7.941h-3.573l1.094-3.046zm-16.134 0 2.579-3.19 1.239 3.19zm5.533 1.174h5.36l-2.576 7.169zm-1.26 0H5.2l6.166 8.305zm4.978 8.042 2.889-8.042h2.89z"></path>
</svg>