<svg width="73" height="72" viewBox="0 0 73 72" fill="none" xmlns="http://www.w3.org/2000/svg">
<rect x="0.666992" width="72" height="72" rx="36" fill="#FF401A" fill-opacity="0.1"/>
<rect x="1.41699" y="0.75" width="70.5" height="70.5" rx="35.25" stroke="#FF401A" stroke-opacity="0.1" stroke-width="1.5"/>
<path d="M36.668 23.5C39.7946 26.9229 41.5714 31.365 41.668 36C41.5714 40.635 39.7946 45.0771 36.668 48.5M36.668 23.5C33.5414 26.9229 31.7645 31.365 31.668 36C31.7645 40.635 33.5414 45.0771 36.668 48.5M36.668 23.5C29.7644 23.5 24.168 29.0964 24.168 36C24.168 42.9036 29.7644 48.5 36.668 48.5M36.668 23.5C43.5715 23.5 49.168 29.0964 49.168 36C49.168 42.9036 43.5715 48.5 36.668 48.5M24.793 32.25H48.543M24.793 39.75H48.543" stroke="#FF401A" stroke-width="2.25" stroke-linecap="round" stroke-linejoin="round"/>
</svg>
