<svg width="24" height="25" viewBox="0 0 24 25" fill="none" xmlns="http://www.w3.org/2000/svg">
<path d="M21 18.1206V12.1206C21 7.15004 16.9706 3.12061 12 3.12061C7.02944 3.12061 3 7.15004 3 12.1206V18.1206M5.5 21.1206C4.11929 21.1206 3 20.0013 3 18.6206V16.6206C3 15.2399 4.11929 14.1206 5.5 14.1206C6.88071 14.1206 8 15.2399 8 16.6206V18.6206C8 20.0013 6.88071 21.1206 5.5 21.1206ZM18.5 21.1206C17.1193 21.1206 16 20.0013 16 18.6206V16.6206C16 15.2399 17.1193 14.1206 18.5 14.1206C19.8807 14.1206 21 15.2399 21 16.6206V18.6206C21 20.0013 19.8807 21.1206 18.5 21.1206Z" stroke="black" stroke-width="1.5" stroke-linecap="round" stroke-linejoin="round"/>
</svg>
