<svg width="24" height="25" viewBox="0 0 24 25" fill="none" xmlns="http://www.w3.org/2000/svg">
<path d="M17 10.1206V8.12061C17 5.35918 14.7614 3.12061 12 3.12061C9.23858 3.12061 7 5.35918 7 8.12061V10.1206M12 14.6206V16.6206M8.8 21.1206H15.2C16.8802 21.1206 17.7202 21.1206 18.362 20.7936C18.9265 20.506 19.3854 20.0471 19.673 19.4826C20 18.8408 20 18.0008 20 16.3206V14.9206C20 13.2404 20 12.4004 19.673 11.7586C19.3854 11.1941 18.9265 10.7352 18.362 10.4476C17.7202 10.1206 16.8802 10.1206 15.2 10.1206H8.8C7.11984 10.1206 6.27976 10.1206 5.63803 10.4476C5.07354 10.7352 4.6146 11.1941 4.32698 11.7586C4 12.4004 4 13.2404 4 14.9206V16.3206C4 18.0008 4 18.8408 4.32698 19.4826C4.6146 20.0471 5.07354 20.506 5.63803 20.7936C6.27976 21.1206 7.11984 21.1206 8.8 21.1206Z" stroke="black" stroke-width="1.5" stroke-linecap="round" stroke-linejoin="round"/>
</svg>
