<svg viewBox="0 0 24 24" width="20px" height="20px" class="d Vb UmNoP" aria-hidden="true">
    <path fill-rule="evenodd" clip-rule="evenodd" d="M2.625 3.26h18.75v1.602l-8.625 8.96v5.418h3.984v1.5H7.151v-1.5h4.099v-5.42L2.625 4.8zm9.377 9.177 7.39-7.677H4.662z"></path>
    <path d="M14.386 6.46a1.4 1.4 0 0 0-.791.255 1.5 1.5 0 0 0-.525.67 1.56 1.56 0 0 0-.085.86c.054.288.188.555.385.765a1.37 1.37 0 0 0 1.016.44c.19.003.377-.035.552-.11a1.52 1.52 0 0 0 .857-1.097 1.56 1.56 0 0 0-.082-.867 1.5 1.5 0 0 0-.529-.673 1.4 1.4 0 0 0-.798-.253z"></path>
    <path fill-rule="evenodd" clip-rule="evenodd" d="M14.469 7.46h-.075a.4.4 0 0 0-.225.074.5.5 0 0 0-.17.22.56.56 0 0 0-.03.308c.02.105.067.195.13.263q.061.065.134.095.072.03.145.03h.022a.34.34 0 0 0 .14-.028q.07-.03.13-.093l.005-.005.005-.005a.5.5 0 0 0 .133-.264.56.56 0 0 0-.03-.31.5.5 0 0 0-.171-.222.4.4 0 0 0-.143-.064m.917-.586a1.4 1.4 0 0 0-1-.424v.01a1.4 1.4 0 0 0-.791.255 1.5 1.5 0 0 0-.525.67 1.56 1.56 0 0 0-.085.86c.054.288.188.555.385.765a1.37 1.37 0 0 0 1.016.44c.19.003.377-.035.552-.11a1.52 1.52 0 0 0 .857-1.097 1.56 1.56 0 0 0-.082-.867 1.5 1.5 0 0 0-.327-.502"></path>
</svg>