<svg viewBox="0 0 24 24" width="20px" height="20px" class="d Vb UmNoP" aria-hidden="true">
    <path fill-rule="evenodd" clip-rule="evenodd" d="m12.005 3.893 9.844 16.214H2.15l4.535-7.14zM7.94 13.79l-3.06 4.818h14.302l-2.564-4.224-.072.06c-.436.348-1.099.664-2.031.664-.549 0-1.02-.185-1.42-.408a9 9 0 0 1-.945-.634l-.139-.102c-.686-.499-1.26-.856-1.996-.856-.868 0-1.408.215-1.713.395a1.7 1.7 0 0 0-.362.287m7.875-.728-3.789-6.24-2.837 4.84q.38-.053.826-.054c1.265 0 2.19.642 2.879 1.143l.154.113c.294.215.534.39.778.527.272.151.488.217.689.217.568 0 .905-.184 1.094-.336.1-.08.166-.156.204-.208z"></path>
</svg>