<svg width="92" height="24" viewBox="0 0 92 24" fill="none" xmlns="http://www.w3.org/2000/svg">
<path d="M80.2598 5.60643L78.2965 17.9527C78.2891 17.998 78.2918 18.0444 78.3042 18.0887C78.3167 18.1329 78.3386 18.1738 78.3686 18.2086C78.3985 18.2434 78.4357 18.2713 78.4775 18.2902C78.5193 18.3091 78.5648 18.3186 78.6106 18.3181H80.9341C81.0161 18.3188 81.0956 18.2901 81.1583 18.2372C81.221 18.1843 81.2626 18.1106 81.2757 18.0296L83.239 5.68332C83.2464 5.63799 83.2437 5.59159 83.2313 5.54739C83.2188 5.50318 83.1969 5.46224 83.1669 5.42742C83.137 5.39261 83.0998 5.36477 83.058 5.34586C83.0162 5.32694 82.9707 5.31742 82.9249 5.31794H80.6014C80.5191 5.31631 80.4391 5.34469 80.3763 5.39777C80.3134 5.45086 80.272 5.52503 80.2598 5.60643ZM77.7787 9.20937H75.5742C75.4923 9.20856 75.4128 9.23718 75.3502 9.29003C75.2876 9.34288 75.2461 9.41645 75.2331 9.49737L75.1602 9.9519C75.1602 9.9519 73.4479 8.09361 70.4163 9.34945C68.6771 10.0685 67.8422 11.554 67.487 12.6423C67.487 12.6423 66.3595 15.9499 68.9095 17.7705C68.9095 17.7705 71.2741 19.5215 73.9367 17.6628L73.8907 17.9527C73.8801 18.0208 73.892 18.0906 73.9247 18.1512C73.9574 18.2119 74.0091 18.2602 74.0718 18.2887C74.1134 18.3083 74.1589 18.3181 74.2049 18.3181H76.411C76.4932 18.3197 76.5732 18.2914 76.636 18.2383C76.6989 18.1852 76.7403 18.111 76.7525 18.0296L78.0944 9.57475C78.1019 9.52947 78.0992 9.48308 78.0866 9.43894C78.074 9.39481 78.0518 9.35403 78.0215 9.31957C77.9916 9.28445 77.9543 9.25634 77.9124 9.23721C77.8704 9.21808 77.8248 9.2089 77.7787 9.20937ZM74.5347 13.882C74.4487 14.4727 74.1503 15.0118 73.6955 15.3979C73.2387 15.7855 72.6574 15.9948 72.0586 15.9872C71.8238 15.9899 71.59 15.9559 71.3656 15.8863C70.4138 15.5826 69.8706 14.6745 70.0267 13.69C70.1135 13.0996 70.4122 12.561 70.867 12.1751C71.3234 11.7873 71.9043 11.5774 72.5029 11.5839C72.7378 11.5815 72.9716 11.6158 73.1959 11.6858C74.1535 11.9875 74.6943 12.897 74.5372 13.8825H74.5347V13.882ZM62.7627 14.1157C63.9582 14.1157 65.1145 13.6905 66.0228 12.9176C66.9292 12.1473 67.5293 11.0771 67.714 9.90145C68.1001 7.4559 66.1774 5.32137 63.4517 5.32137H59.0606C58.9787 5.32058 58.8992 5.34927 58.8366 5.40222C58.774 5.45516 58.7324 5.52885 58.7196 5.60986L56.7557 17.9561C56.7451 18.0243 56.757 18.094 56.7897 18.1547C56.8224 18.2154 56.8741 18.2636 56.9368 18.2921C56.9789 18.3117 57.0239 18.3215 57.0699 18.3215H59.3949C59.4768 18.3223 59.5563 18.2936 59.6189 18.2407C59.6815 18.1877 59.7231 18.114 59.736 18.033L60.3124 14.4076C60.3245 14.3261 60.3659 14.2518 60.4288 14.1986C60.4916 14.1454 60.5717 14.117 60.654 14.1186L62.7627 14.1157ZM64.7074 9.79026C64.564 10.6944 63.8603 11.3601 62.5141 11.3601H60.793L61.3156 8.07206H63.0059C64.3976 8.07451 64.8508 8.89002 64.7074 9.79271V9.79026Z" fill="#0070E0"/>
<path d="M54.1078 9.41894L51.4486 13.8785L50.099 9.45175C50.0778 9.38111 50.0343 9.31925 49.975 9.27552C49.9157 9.23179 49.8438 9.20855 49.7701 9.20931H47.3703C47.3082 9.20846 47.2479 9.23011 47.2005 9.27025C47.1531 9.3104 47.1218 9.36633 47.1124 9.42775C47.1066 9.46848 47.1107 9.51001 47.1246 9.54873L49.543 17.0054L47.3556 20.5192C47.337 20.5481 47.3246 20.5805 47.3189 20.6144C47.3133 20.6484 47.3147 20.6831 47.3229 20.7165C47.3312 20.7498 47.3461 20.7812 47.3669 20.8086C47.3877 20.836 47.4138 20.8588 47.4437 20.8758C47.4837 20.8988 47.5292 20.9106 47.5753 20.91H50.1601C50.2339 20.9103 50.3065 20.8915 50.3709 20.8555C50.4352 20.8194 50.4892 20.7674 50.5276 20.7043L57.2828 9.60212C57.3073 9.56346 57.3207 9.51884 57.3217 9.47308C57.3226 9.42732 57.311 9.38217 57.2882 9.34253C57.2654 9.30275 57.2323 9.26982 57.1925 9.24717C57.1526 9.22451 57.1074 9.21296 57.0616 9.21371H54.4778C54.4036 9.21303 54.3306 9.23157 54.2658 9.26754C54.2009 9.30351 54.1465 9.35566 54.1078 9.41894ZM46.0099 9.20931H43.8033C43.7212 9.20852 43.6416 9.23726 43.5789 9.2903C43.5162 9.34334 43.4746 9.41715 43.4618 9.49828L43.3903 9.95233C43.3903 9.95233 41.6766 8.09404 38.645 9.34988C36.9063 10.0689 36.0709 11.5544 35.7171 12.6428C35.7171 12.6428 34.5886 15.9504 37.1382 17.7709C37.1382 17.7709 39.5033 19.522 42.1659 17.6632L42.1199 17.9531C42.1091 18.0213 42.121 18.0911 42.1537 18.1518C42.1864 18.2125 42.2382 18.2608 42.301 18.2891C42.3426 18.3087 42.3881 18.3185 42.4341 18.3185H44.6401C44.722 18.3191 44.8014 18.2904 44.864 18.2374C44.9266 18.1845 44.9681 18.111 44.9812 18.03L46.3235 9.57518C46.3345 9.50698 46.3227 9.43706 46.2899 9.37625C46.2572 9.31543 46.2054 9.26709 46.1425 9.23869C46.1007 9.21946 46.0558 9.20944 46.0099 9.20931ZM42.7654 13.8829C42.6785 14.4729 42.38 15.0111 41.9256 15.3969C41.4691 15.7844 40.8883 15.9942 40.2897 15.9876C40.0552 15.9902 39.8218 15.9562 39.5978 15.8867C38.6464 15.583 38.1037 14.6749 38.2598 13.69C38.3468 13.0982 38.6466 12.5586 39.103 12.1726C39.5611 11.7848 40.1439 11.5759 40.7438 11.5843C40.9787 11.5819 41.2131 11.6162 41.4373 11.6862C42.3852 11.9879 42.9249 12.897 42.7683 13.8829H42.7654ZM30.9938 14.1161C32.1873 14.1155 33.3417 13.6903 34.251 12.9166C35.1565 12.1463 35.7559 11.0764 35.9403 9.90139C36.3269 7.45633 34.4037 5.32179 31.6789 5.32179H27.2874C27.2054 5.32097 27.1259 5.34958 27.0632 5.40242C27.0006 5.45526 26.9589 5.52883 26.9458 5.60979L24.9883 17.9527C24.9774 18.0209 24.9892 18.0908 25.0219 18.1516C25.0547 18.2124 25.1065 18.2607 25.1694 18.2891C25.211 18.3082 25.2565 18.3185 25.3025 18.3185H27.626C27.7081 18.3193 27.7877 18.2906 27.8504 18.2375C27.9131 18.1845 27.9547 18.1107 27.9676 18.0296L28.5431 14.4041C28.5553 14.3227 28.5967 14.2485 28.6596 14.1954C28.7224 14.1423 28.8024 14.114 28.8846 14.1156L30.9938 14.1161ZM32.9385 9.7902C32.7951 10.6944 32.0919 11.36 30.7457 11.36H29.0246L29.5463 8.072H31.2365C32.6288 8.07445 33.0814 8.89045 32.9385 9.79265V9.7902Z" fill="#003087"/>
<path d="M15.9731 5.95582C16.0255 3.22961 13.7788 1.13818 10.6895 1.13818H4.29937C4.15046 1.13811 4.00642 1.19127 3.8932 1.28807C3.77997 1.38487 3.705 1.51896 3.6818 1.66618L1.12146 17.6791C1.11 17.7516 1.1144 17.8258 1.13433 17.8965C1.15427 17.9672 1.18928 18.0328 1.23695 18.0886C1.28463 18.1445 1.34383 18.1893 1.41048 18.2201C1.47713 18.2509 1.54966 18.2668 1.62305 18.2668H5.40876L4.81712 21.9746C4.80566 22.0472 4.81006 22.1213 4.82999 22.192C4.84993 22.2627 4.88494 22.3283 4.93261 22.3841C4.98029 22.44 5.03949 22.4849 5.10614 22.5156C5.17279 22.5464 5.24532 22.5623 5.31871 22.5623H8.40267C8.55144 22.5623 8.68405 22.509 8.79759 22.4125C8.91014 22.3155 8.92874 22.1818 8.95223 22.0343L9.85754 16.7034C9.88054 16.5565 9.95542 16.3654 10.0685 16.2685C10.1815 16.1715 10.2804 16.1186 10.4296 16.1186H12.3166C15.3423 16.1186 17.909 13.9659 18.3783 10.9723C18.7106 8.84757 17.8004 6.91435 15.9731 5.95582Z" fill="#001C64"/>
<path d="M6.22682 12.3616L5.28382 18.3459L4.69169 22.0997C4.68031 22.1723 4.68477 22.2465 4.70478 22.3172C4.72478 22.3878 4.75984 22.4533 4.80756 22.5091C4.85528 22.5649 4.91451 22.6097 4.98119 22.6405C5.04786 22.6712 5.12039 22.687 5.19378 22.687H8.45782C8.60659 22.6869 8.75045 22.6337 8.86349 22.5369C8.97653 22.4401 9.05133 22.3061 9.07442 22.159L9.93471 16.7032C9.95791 16.556 10.0328 16.422 10.1459 16.3252C10.2591 16.2284 10.403 16.1752 10.5518 16.1752H12.473C15.4988 16.1752 18.0655 13.9662 18.5352 10.9725C18.868 8.84781 17.7992 6.9141 15.972 5.95557C15.9671 6.18185 15.9475 6.40765 15.9128 6.63148C15.4435 9.62414 12.8758 11.8336 9.85103 11.8336H6.84391C6.69504 11.8338 6.55111 11.8871 6.43799 11.984C6.32488 12.0808 6.25 12.2144 6.22682 12.3616Z" fill="#0070E0"/>
<path d="M5.28338 18.3457H1.48593C1.41255 18.3457 1.34004 18.3298 1.2734 18.299C1.20677 18.2682 1.14759 18.2233 1.09996 18.1675C1.05232 18.1116 1.01736 18.0461 0.997486 17.9754C0.977609 17.9047 0.973289 17.8305 0.984824 17.7579L3.54516 1.50749C3.56836 1.36035 3.64325 1.22633 3.75638 1.12954C3.8695 1.03275 4.01342 0.979539 4.16225 0.979492H10.6884C13.7777 0.979492 16.0244 3.22961 15.972 5.95533C15.2032 5.55174 14.2999 5.32104 13.3104 5.32104H7.86965C7.72074 5.32097 7.5767 5.37413 7.46348 5.47093C7.35025 5.56773 7.27528 5.70182 7.25208 5.84904L6.22736 12.3614L5.28289 18.3457H5.28338Z" fill="#003087"/>
</svg>
