<svg width="24" height="25" viewBox="0 0 24 25" fill="none" xmlns="http://www.w3.org/2000/svg">
<path d="M8.38028 8.97396C9.07627 10.4236 10.0251 11.7822 11.2266 12.9838C12.4282 14.1854 13.7869 15.1342 15.2365 15.8302C15.3612 15.89 15.4235 15.92 15.5024 15.943C15.7828 16.0247 16.127 15.966 16.3644 15.796C16.4313 15.7481 16.4884 15.691 16.6027 15.5767C16.9523 15.2271 17.1271 15.0523 17.3029 14.938C17.9658 14.507 18.8204 14.507 19.4833 14.938C19.6591 15.0523 19.8339 15.2271 20.1835 15.5767L20.3783 15.7715C20.9098 16.303 21.1755 16.5687 21.3198 16.8541C21.6069 17.4216 21.6069 18.0919 21.3198 18.6595C21.1755 18.9448 20.9098 19.2106 20.3783 19.742L20.2207 19.8996C19.6911 20.4293 19.4263 20.6941 19.0662 20.8963C18.6667 21.1207 18.0462 21.2821 17.588 21.2807C17.1751 21.2795 16.8928 21.1994 16.3284 21.0392C13.295 20.1782 10.4326 18.5538 8.04466 16.1658C5.65668 13.7778 4.03221 10.9154 3.17124 7.88204C3.01103 7.31759 2.93092 7.03537 2.9297 6.62242C2.92833 6.1642 3.08969 5.54371 3.31411 5.1442C3.51636 4.78417 3.78117 4.51936 4.3108 3.98974L4.46843 3.8321C4.99987 3.30066 5.2656 3.03494 5.55098 2.8906C6.11854 2.60353 6.7888 2.60353 7.35636 2.8906C7.64174 3.03494 7.90747 3.30066 8.43891 3.8321L8.63378 4.02697C8.98338 4.37658 9.15819 4.55138 9.27247 4.72716C9.70347 5.39005 9.70347 6.24463 9.27247 6.90752C9.15819 7.0833 8.98338 7.2581 8.63378 7.60771C8.51947 7.72202 8.46231 7.77918 8.41447 7.84599C8.24446 8.08342 8.18576 8.42768 8.26748 8.70803C8.29048 8.78692 8.32041 8.84927 8.38028 8.97396Z" stroke="black" stroke-width="1.5" stroke-linecap="round" stroke-linejoin="round"/>
</svg>
