<svg width="21" height="20" viewBox="0 0 21 20" fill="none" xmlns="http://www.w3.org/2000/svg">
<path d="M4.66693 10.8333C4.66693 12.207 5.22087 13.4513 6.11755 14.355C6.20403 14.4421 6.24727 14.4857 6.27279 14.5276C6.29715 14.5676 6.31133 14.602 6.3222 14.6475C6.3336 14.6953 6.3336 14.7496 6.3336 14.8582V16.8333C6.3336 17.0667 6.3336 17.1834 6.37902 17.2725C6.41896 17.3509 6.4827 17.4146 6.5611 17.4546C6.65023 17.5 6.76691 17.5 7.00027 17.5H8.5836C8.81696 17.5 8.93363 17.5 9.02276 17.4546C9.10116 17.4146 9.16491 17.3509 9.20485 17.2725C9.25027 17.1834 9.25027 17.0667 9.25027 16.8333V16.5C9.25027 16.2666 9.25027 16.15 9.29568 16.0608C9.33563 15.9824 9.39937 15.9187 9.47777 15.8787C9.5669 15.8333 9.68358 15.8333 9.91693 15.8333H11.0836C11.317 15.8333 11.4336 15.8333 11.5228 15.8787C11.6012 15.9187 11.6649 15.9824 11.7049 16.0608C11.7503 16.15 11.7503 16.2666 11.7503 16.5V16.8333C11.7503 17.0667 11.7503 17.1834 11.7957 17.2725C11.8356 17.3509 11.8994 17.4146 11.9778 17.4546C12.0669 17.5 12.1836 17.5 12.4169 17.5H14.0003C14.2337 17.5 14.3504 17.5 14.4395 17.4546C14.5179 17.4146 14.5816 17.3509 14.6216 17.2725C14.667 17.1834 14.667 17.0667 14.667 16.8333V16.0203C14.667 15.8519 14.667 15.7677 14.691 15.7001C14.7139 15.6353 14.7429 15.59 14.792 15.5419C14.8432 15.4917 14.9299 15.4514 15.1034 15.3709C15.9219 14.9908 16.6204 14.3959 17.1263 13.6585C17.2152 13.5288 17.2597 13.464 17.3072 13.4257C17.3526 13.389 17.3934 13.3676 17.4493 13.3508C17.5077 13.3333 17.5771 13.3333 17.7159 13.3333H18.167C18.4003 13.3333 18.517 13.3333 18.6062 13.2879C18.6846 13.248 18.7483 13.1842 18.7882 13.1058C18.8337 13.0167 18.8337 12.9 18.8337 12.6667V9.82146C18.8337 9.5993 18.8337 9.48822 18.7924 9.40253C18.7514 9.3175 18.6828 9.24889 18.5978 9.20794C18.5121 9.16667 18.401 9.16667 18.1789 9.16667C18.0181 9.16667 17.9377 9.16667 17.8729 9.14484C17.8031 9.1213 17.7541 9.08999 17.7034 9.03648C17.6565 8.98685 17.6181 8.90387 17.5414 8.73789C17.2952 8.20519 16.958 7.72314 16.5497 7.3117C16.4632 7.22455 16.42 7.18097 16.3945 7.13906C16.3701 7.09908 16.3559 7.06466 16.3451 7.01912C16.3337 6.97139 16.3337 6.91709 16.3337 6.80848V5.88382C16.3337 5.58378 16.3337 5.43376 16.2712 5.33292C16.2164 5.24459 16.1307 5.1799 16.0307 5.15154C15.9166 5.11916 15.7723 5.16037 15.4838 5.2428L13.5067 5.80768C13.4731 5.81728 13.4563 5.82208 13.4392 5.82545C13.4241 5.82845 13.4087 5.83059 13.3933 5.83188C13.376 5.83333 13.3585 5.83333 13.3236 5.83333H12.9662M4.66693 10.8333C4.66693 8.91328 5.7492 7.246 7.33697 6.40825M4.66693 10.8333H3.83366C2.91318 10.8333 2.16699 10.0871 2.16699 9.16667C2.16699 8.54976 2.50216 8.01115 3.00033 7.72297M13.0003 5.41667C13.0003 7.0275 11.6945 8.33333 10.0837 8.33333C8.47283 8.33333 7.16699 7.0275 7.16699 5.41667C7.16699 3.80584 8.47283 2.5 10.0837 2.5C11.6945 2.5 13.0003 3.80584 13.0003 5.41667Z" stroke="black" stroke-width="1.5" stroke-linecap="round" stroke-linejoin="round"/>
</svg>
