<svg width="21" height="20" viewBox="0 0 21 20" fill="none" xmlns="http://www.w3.org/2000/svg">
<path d="M15.2873 2.34472C16.0912 1.51432 17.4196 1.50358 18.2369 2.32087C19.0318 3.11577 19.0466 4.39991 18.2702 5.21291L15.9547 7.63771C15.7732 7.82777 15.6824 7.9228 15.6265 8.0341C15.577 8.13263 15.5475 8.24001 15.5398 8.35C15.5311 8.47426 15.5607 8.60229 15.6197 8.85836L17.0597 15.098C17.1203 15.3608 17.1506 15.4923 17.1409 15.6194C17.1322 15.7319 17.1008 15.8415 17.0485 15.9415C16.9894 16.0545 16.894 16.1499 16.7033 16.3406L16.3943 16.6496C15.8892 17.1547 15.6366 17.4073 15.3781 17.453C15.1524 17.4929 14.9202 17.4381 14.7362 17.3014C14.5254 17.1449 14.4125 16.8061 14.1866 16.1284L12.5118 11.104L9.72402 13.8918C9.55761 14.0582 9.47441 14.1414 9.41875 14.2394C9.36945 14.3262 9.33614 14.4211 9.32041 14.5197C9.30267 14.631 9.31566 14.7479 9.34165 14.9818L9.49474 16.3597C9.52073 16.5935 9.53372 16.7105 9.51597 16.8218C9.50025 16.9204 9.46694 17.0153 9.41764 17.1021C9.36198 17.2001 9.27878 17.2833 9.11237 17.4497L8.94778 17.6143C8.55357 18.0085 8.35646 18.2056 8.13742 18.2627C7.9453 18.3128 7.74161 18.2926 7.56304 18.2058C7.35945 18.1069 7.20482 17.875 6.89557 17.4111L5.58864 15.4507C5.53339 15.3678 5.50576 15.3264 5.47369 15.2888C5.4452 15.2554 5.41412 15.2243 5.38074 15.1958C5.34315 15.1638 5.30171 15.1361 5.21884 15.0809L3.25844 13.7739C2.79456 13.4647 2.56263 13.3101 2.46369 13.1065C2.37692 12.9279 2.35675 12.7242 2.40682 12.5321C2.4639 12.3131 2.66101 12.116 3.05523 11.7217L3.21981 11.5572C3.38622 11.3907 3.46942 11.3075 3.5674 11.2519C3.65421 11.2026 3.74916 11.1693 3.84775 11.1535C3.95903 11.1358 4.07597 11.1488 4.30987 11.1748L5.68769 11.3279C5.92158 11.3539 6.03853 11.3669 6.14981 11.3491C6.24839 11.3334 6.34335 11.3001 6.43015 11.2508C6.52813 11.1951 6.61133 11.1119 6.77774 10.9455L9.56551 8.15773L4.54111 6.48293C3.86342 6.25704 3.52457 6.14409 3.36808 5.93333C3.23143 5.7493 3.17661 5.5171 3.21654 5.29139C3.26226 5.0329 3.51482 4.78033 4.01994 4.27521L4.32891 3.96624C4.51966 3.77549 4.61503 3.68012 4.72802 3.62105C4.82803 3.56876 4.93762 3.53733 5.05014 3.52867C5.17727 3.51887 5.30869 3.5492 5.57153 3.60986L11.7875 5.04431C12.0458 5.10391 12.1749 5.13372 12.2996 5.12485C12.42 5.11629 12.5371 5.08168 12.6428 5.02342C12.7523 4.96308 12.8445 4.86785 13.0288 4.6774L15.2873 2.34472Z" stroke="#FF401A" stroke-width="1.5" stroke-linecap="round" stroke-linejoin="round"/>
</svg>
