<svg width="42" height="42" viewBox="0 0 42 42" fill="none" xmlns="http://www.w3.org/2000/svg">
<rect width="42" height="42" rx="21" fill="#FF401A" fill-opacity="0.14"/>
<g clip-path="url(#clip0_10095_13304)">
<path d="M18.5753 18.5003C18.7712 17.9434 19.158 17.4737 19.667 17.1746C20.176 16.8755 20.7744 16.7661 21.3563 16.8659C21.9382 16.9657 22.466 17.2683 22.8462 17.7199C23.2264 18.1716 23.4345 18.7433 23.4337 19.3337C23.4337 21.0003 20.9337 21.8337 20.9337 21.8337M21.0003 25.167H21.0087M29.3337 21.0003C29.3337 25.6027 25.6027 29.3337 21.0003 29.3337C16.398 29.3337 12.667 25.6027 12.667 21.0003C12.667 16.398 16.398 12.667 21.0003 12.667C25.6027 12.667 29.3337 16.398 29.3337 21.0003Z" stroke="#FF401A" stroke-width="1.5" stroke-linecap="round" stroke-linejoin="round"/>
</g>
<defs>
<clipPath id="clip0_10095_13304">
<rect width="20" height="20" fill="white" transform="translate(11 11)"/>
</clipPath>
</defs>
</svg>
