<svg width="21" height="20" viewBox="0 0 21 20" fill="none" xmlns="http://www.w3.org/2000/svg">
<path d="M16.3337 8.33399L4.66702 8.33398M16.3337 8.33399L17.8872 10.9231C18.2353 11.5033 18.4094 11.7935 18.4998 12.1058C18.5799 12.3825 18.6116 12.671 18.5934 12.9586C18.5729 13.283 18.4659 13.604 18.2519 14.246L18.0787 14.7656C17.7509 15.7491 17.587 16.2409 17.2829 16.6044C17.0144 16.9255 16.6696 17.174 16.2801 17.3272C15.8391 17.5007 15.3207 17.5007 14.284 17.5007L6.71673 17.5007C5.68 17.5007 5.16164 17.5007 4.72057 17.3272C4.33109 17.174 3.98629 16.9255 3.7178 16.6044C3.41376 16.2408 3.24984 15.7491 2.922 14.7656L2.7488 14.246C2.53481 13.604 2.42782 13.283 2.40732 12.9586C2.38915 12.671 2.42082 12.3825 2.50093 12.1058C2.59133 11.7935 2.76541 11.5033 3.11356 10.9231L4.66702 8.33398M16.3337 8.33399L16.6814 7.11695C16.8463 6.53996 16.9287 6.25146 16.8639 6.02322C16.8072 5.82328 16.6778 5.65175 16.5012 5.54228C16.2995 5.41732 15.9995 5.41732 15.3994 5.41732L5.60133 5.41732C5.00125 5.41732 4.70121 5.41732 4.49954 5.54228C4.32288 5.65175 4.19349 5.82328 4.13677 6.02322C4.07202 6.25146 4.15445 6.53996 4.3193 7.11695L4.66702 8.33398M10.5004 5.41732H7.55393C7.1198 5.41732 6.70344 5.24172 6.39646 4.92916C6.08948 4.6166 5.91702 4.19268 5.91702 3.75065C5.91702 3.30862 6.08948 2.8847 6.39646 2.57214C6.70344 2.25958 7.1198 2.08398 7.55393 2.08398C9.8456 2.08398 10.5004 5.41732 10.5004 5.41732ZM10.5004 5.41732H13.4468C13.8809 5.41732 14.2973 5.24172 14.6043 4.92916C14.9112 4.6166 15.0837 4.19268 15.0837 3.75065C15.0837 3.30862 14.9112 2.8847 14.6043 2.57214C14.2973 2.25958 13.8809 2.08398 13.4468 2.08398C11.1551 2.08398 10.5004 5.41732 10.5004 5.41732Z" stroke="black" stroke-width="1.5" stroke-linecap="round" stroke-linejoin="round"/>
</svg>
