<svg width="20" height="20" viewBox="0 0 20 20" fill="none" xmlns="http://www.w3.org/2000/svg">
<g clip-path="url(#clip0_10300_35792)">
<path d="M15.8328 17.4986L17.2453 13.6132C17.3152 13.4211 17.3121 13.2101 17.2365 13.0202C17.1609 12.8303 17.0181 12.6747 16.8353 12.5832L10.372 9.35156C10.2563 9.29376 10.1288 9.26367 9.99951 9.26367C9.87021 9.26367 9.74268 9.29376 9.62701 9.35156L3.16368 12.5832C2.98084 12.6747 2.83799 12.8302 2.76232 13.0201C2.68664 13.21 2.68342 13.4211 2.75326 13.6132L4.16618 17.4986" stroke="black" stroke-width="1.5" stroke-linejoin="round"/>
<path d="M12.082 5.83268V2.49935C12.082 2.27834 11.9942 2.06637 11.838 1.91009C11.6817 1.75381 11.4697 1.66602 11.2487 1.66602H8.7487C8.52768 1.66602 8.31572 1.75381 8.15944 1.91009C8.00316 2.06637 7.91536 2.27834 7.91536 2.49935V5.83268M14.582 5.83268H5.41536C5.19435 5.83268 4.98239 5.92048 4.82611 6.07676C4.66983 6.23304 4.58203 6.445 4.58203 6.66602V11.666L9.64953 9.32727C9.759 9.27675 9.87813 9.25059 9.9987 9.25059C10.1193 9.25059 10.2384 9.27675 10.3479 9.32727L15.4154 11.666V6.66602C15.4154 6.445 15.3276 6.23304 15.1713 6.07676C15.015 5.92048 14.803 5.83268 14.582 5.83268Z" stroke="black" stroke-width="1.5" stroke-linecap="round" stroke-linejoin="round"/>
<path d="M10 13.332V16.6654" stroke="black" stroke-width="1.5" stroke-linecap="round"/>
<path d="M1.66602 18.3333C3.33268 18.3333 3.33268 17.5 4.58268 17.5C5.83268 17.5 5.83268 18.3333 7.08268 18.3333C8.33268 18.3333 8.54102 17.5 9.99935 17.5C11.4577 17.5 11.666 18.3333 12.916 18.3333C14.166 18.3333 14.166 17.5 15.416 17.5C16.666 17.5 16.666 18.3333 18.3327 18.3333" stroke="black" stroke-width="1.5" stroke-linecap="round" stroke-linejoin="round"/>
</g>
<defs>
<clipPath id="clip0_10300_35792">
<rect width="20" height="20" fill="white"/>
</clipPath>
</defs>
</svg>
