<svg viewBox="0 0 24 24" width="20px" height="20px" class="d Vb UmNoP" aria-hidden="true">
    <path fill-rule="evenodd" clip-rule="evenodd"
        d="m12.664 2.272.004-.012zm-.66 2.032-1.84 5.661H4.197l4.82 3.503-1.84 5.655 4.82-3.497 4.827 3.499-1.84-5.657 4.817-3.496h-5.956zm9.54 4.404-.012.009zM12.03 1.251a.81.81 0 0 1 .729.526l.005.015 2.172 6.68h7.012c.427 0 .686.308.766.569a.8.8 0 0 1-.3.89l-5.666 4.11 2.164 6.65a.8.8 0 0 1-.304.918.81.81 0 0 1-.927-.011l-.003-.002-5.68-4.117-5.673 4.116-.003.003a.805.805 0 0 1-1.242-.872l.004-.014 2.17-6.671-5.668-4.12-.003-.002a.805.805 0 0 1 .472-1.454h7.018l2.165-6.656a.8.8 0 0 1 .792-.558"></path>
</svg>