<svg width="73" height="72" viewBox="0 0 73 72" fill="none" xmlns="http://www.w3.org/2000/svg">
<rect x="0.333984" width="72" height="72" rx="36" fill="#FF401A" fill-opacity="0.1"/>
<rect x="1.08398" y="0.75" width="70.5" height="70.5" rx="35.25" stroke="#FF401A" stroke-opacity="0.1" stroke-width="1.5"/>
<path d="M35.4383 25.3167C35.7264 24.733 35.8704 24.4412 36.066 24.348C36.2361 24.2668 36.4338 24.2668 36.604 24.348C36.7995 24.4412 36.9436 24.733 37.2317 25.3167L39.965 30.8542C40.0501 31.0265 40.0926 31.1126 40.1548 31.1795C40.2098 31.2388 40.2758 31.2867 40.3491 31.3208C40.4319 31.3593 40.527 31.3732 40.7171 31.401L46.8312 32.2947C47.475 32.3888 47.797 32.4359 47.9459 32.5931C48.0756 32.7299 48.1365 32.9179 48.1118 33.1048C48.0835 33.3195 47.8504 33.5465 47.3843 34.0005L42.9618 38.3081C42.8239 38.4424 42.755 38.5095 42.7105 38.5894C42.6711 38.6601 42.6458 38.7378 42.6361 38.8182C42.6251 38.909 42.6414 39.0038 42.6739 39.1935L43.7174 45.2777C43.8275 45.9194 43.8825 46.2403 43.7791 46.4307C43.6891 46.5963 43.5292 46.7125 43.3438 46.7469C43.1307 46.7864 42.8426 46.6349 42.2664 46.3318L36.8004 43.4574C36.6301 43.3678 36.545 43.323 36.4553 43.3054C36.3758 43.2898 36.2941 43.2898 36.2147 43.3054C36.125 43.323 36.0398 43.3678 35.8695 43.4574L30.4036 46.3318C29.8274 46.6349 29.5392 46.7864 29.3262 46.7469C29.1408 46.7125 28.9809 46.5963 28.8909 46.4307C28.7875 46.2403 28.8425 45.9194 28.9526 45.2777L29.9961 39.1935C30.0286 39.0038 30.0449 38.909 30.0339 38.8182C30.0241 38.7378 29.9989 38.6601 29.9595 38.5894C29.915 38.5095 29.8461 38.4424 29.7082 38.3081L25.2857 34.0005C24.8195 33.5465 24.5865 33.3195 24.5581 33.1048C24.5334 32.9179 24.5944 32.7299 24.724 32.5931C24.873 32.4359 25.1949 32.3888 25.8388 32.2947L31.9529 31.401C32.143 31.3732 32.2381 31.3593 32.3209 31.3208C32.3942 31.2867 32.4602 31.2388 32.5152 31.1795C32.5773 31.1126 32.6199 31.0265 32.7049 30.8542L35.4383 25.3167Z" stroke="#FF401A" stroke-width="2.25" stroke-linecap="round" stroke-linejoin="round"/>
</svg>
