<svg width="24" height="25" viewBox="0 0 24 25" fill="none" xmlns="http://www.w3.org/2000/svg">
<path d="M16.5 14.1206H16.51M3 5.12061V19.1206C3 20.2252 3.89543 21.1206 5 21.1206H19C20.1046 21.1206 21 20.2252 21 19.1206V9.12061C21 8.01604 20.1046 7.12061 19 7.12061L5 7.12061C3.89543 7.12061 3 6.22517 3 5.12061ZM3 5.12061C3 4.01604 3.89543 3.12061 5 3.12061H17M17 14.1206C17 14.3967 16.7761 14.6206 16.5 14.6206C16.2239 14.6206 16 14.3967 16 14.1206C16 13.8445 16.2239 13.6206 16.5 13.6206C16.7761 13.6206 17 13.8445 17 14.1206Z" stroke="black" stroke-width="1.5" stroke-linecap="round" stroke-linejoin="round"/>
</svg>
