<svg width="72" height="72" viewBox="0 0 72 72" fill="none" xmlns="http://www.w3.org/2000/svg">
<rect width="72" height="72" rx="36" fill="#FF401A" fill-opacity="0.1"/>
<rect x="0.75" y="0.75" width="70.5" height="70.5" rx="35.25" stroke="#FF401A" stroke-opacity="0.1" stroke-width="1.5"/>
<path d="M41 31.0009V26.6267C41 25.587 41 25.0672 40.781 24.7477C40.5896 24.4686 40.2933 24.279 39.9597 24.2222C39.5779 24.1573 39.1059 24.3751 38.1619 24.8108L27.0738 29.9284C26.2319 30.3169 25.8109 30.5112 25.5026 30.8125C25.2301 31.0789 25.022 31.4041 24.8944 31.7632C24.75 32.1694 24.75 32.633 24.75 33.5602V39.7509M41.625 39.1259H41.6375M24.75 35.0009L24.75 43.2509C24.75 44.651 24.75 45.3511 25.0225 45.8859C25.2622 46.3563 25.6446 46.7387 26.115 46.9784C26.6498 47.2509 27.3499 47.2509 28.75 47.2509H43.25C44.6501 47.2509 45.3502 47.2509 45.885 46.9784C46.3554 46.7387 46.7378 46.3563 46.9775 45.8859C47.25 45.3511 47.25 44.651 47.25 43.2509V35.0009C47.25 33.6008 47.25 32.9007 46.9775 32.3659C46.7378 31.8955 46.3554 31.5131 45.885 31.2734C45.3502 31.0009 44.6501 31.0009 43.25 31.0009L28.75 31.0009C27.3499 31.0009 26.6498 31.0009 26.115 31.2734C25.6446 31.5131 25.2622 31.8955 25.0225 32.3659C24.75 32.9007 24.75 33.6008 24.75 35.0009ZM42.25 39.1259C42.25 39.4711 41.9702 39.7509 41.625 39.7509C41.2798 39.7509 41 39.4711 41 39.1259C41 38.7807 41.2798 38.5009 41.625 38.5009C41.9702 38.5009 42.25 38.7807 42.25 39.1259Z" stroke="#FF401A" stroke-width="2.25" stroke-linecap="round" stroke-linejoin="round"/>
</svg>
